<svg width="16" height="16" viewBox="0 0 16 16" fill="none" xmlns="http://www.w3.org/2000/svg">
  <path d="M8.5 11.8066V3.5886C8.5 3.3961 8.58303 3.21297 8.72781 3.08611C10.7438 1.31976 13.7562 1.31976 15.7722 3.08611C15.917 3.21297 16 3.3961 16 3.5886V11.8066C16 12.2716 15.4522 12.52 15.1024 12.2135C13.4698 10.7831 11.0302 10.7831 9.39759 12.2135C9.04784 12.52 8.5 12.2716 8.5 11.8066Z" fill="currentColor"/>
  <path d="M0 11.8066V3.5886C0 3.3961 0.083028 3.21297 0.227808 3.08611C2.24376 1.31976 5.25624 1.31976 7.27219 3.08611C7.41697 3.21297 7.5 3.3961 7.5 3.5886V11.8066C7.5 12.2716 6.95216 12.52 6.60241 12.2135C4.96982 10.7831 2.53018 10.7831 0.89759 12.2135C0.547841 12.52 0 12.2716 0 11.8066Z" fill="currentColor"/>
</svg>
