<svg width="16" height="16" viewBox="0 0 16 16" fill="none" xmlns="http://www.w3.org/2000/svg">
  <path d="M13.0001 6.99994L3.00012 6.99994V5.99994L13.0001 5.99994V6.99994Z" fill="currentColor"/>
  <path d="M13.0001 9.99994L3.00012 9.99994V8.99994L13.0001 8.99994V9.99994Z" fill="currentColor"/>
  <path d="M1.00012 3.99994L15.0001 3.99994H16.0001V1.99994C16.0001 0.89537 15.1047 -6.10352e-05 14.0001 -6.10352e-05L2.00012 -6.00815e-05C0.895553 -6.00815e-05 0.00012207 0.89537 0.00012207 1.99994V3.99994L1.00012 3.99994Z" fill="currentColor"/>
  <path d="M3.00019 12.9999H8.00019V11.9999H3.00019V12.9999Z" fill="currentColor"/>
  <path d="M1.00019 13.9999L1.00012 3.99994L0.00012207 3.99994L0.000195154 13.9999C0.000195154 15.1045 0.895625 15.9999 2.00019 15.9999H14.0002C15.1048 15.9999 16.0002 15.1045 16.0002 13.9999L16.0001 3.99994H15.0001L15.0002 13.9999C15.0002 14.5522 14.5525 14.9999 14.0002 14.9999L2.00019 14.9999C1.44791 14.9999 1.00019 14.5522 1.00019 13.9999Z" fill="currentColor"/>
</svg>
