<svg width="16" height="16" viewBox="0 0 16 16" fill="none" xmlns="http://www.w3.org/2000/svg">
  <path fill-rule="evenodd" clip-rule="evenodd" d="M3 12.6667C3 12.7551 3.03512 12.8399 3.09763 12.9024C3.16014 12.9649 3.24493 13 3.33333 13L12.6667 13C12.7551 13 12.8399 12.9649 12.9024 12.9024C12.9649 12.8399 13 12.7551 13 12.6667L13 10C13 9.44771 13.4477 9 14 9C14.5523 9 15 9.44771 15 10L15 12.6667C15 13.2855 14.7542 13.879 14.3166 14.3166C13.879 14.7542 13.2855 15 12.6667 15L3.33333 15C2.7145 15 2.121 14.7542 1.68342 14.3166C1.24583 13.879 1 13.2855 1 12.6667L1 10C1 9.44772 1.44771 9 2 9C2.55228 9 3 9.44772 3 10L3 12.6667Z" fill="#ffffff" />
  <path fill-rule="evenodd" clip-rule="evenodd" d="M8 1C8.55229 1 9 1.44772 9 2L9 9C9 9.55228 8.55229 10 8 10C7.44772 10 7 9.55228 7 9L7 2C7 1.44772 7.44772 1 8 1Z" fill="#ffffff" />
  <path d="M11.6929 6.71299C11.809 6.99324 11.7448 7.31583 11.5303 7.53033L8.53034 10.5303C8.38969 10.671 8.19892 10.75 8.00001 10.75C7.8011 10.75 7.61033 10.671 7.46968 10.5303L4.46968 7.53033C4.25518 7.31583 4.19101 6.99324 4.3071 6.71299C4.42318 6.43273 4.69666 6.25 5.00001 6.25L11 6.25C11.3034 6.25 11.5768 6.43273 11.6929 6.71299Z" fill="#ffffff" />
</svg>
