<svg width="16" height="16" viewBox="0 0 16 16" fill="none" xmlns="http://www.w3.org/2000/svg">
  <path fill-rule="evenodd" clip-rule="evenodd" d="M9.18675 3.00017C9.12555 3.00015 9.0633 3.00015 9 3.00015H5C3.11438 3.00015 2.17157 3.00015 1.58579 3.58594C1 4.17173 1 5.11453 1 7.00015V11.0002C1 12.8858 1 13.8286 1.58579 14.4144C2.17157 15.0002 3.11438 15.0002 5 15.0002H9C10.8856 15.0002 11.8284 15.0002 12.4142 14.4144C13 13.8286 13 12.8858 13 11.0002V7.33125L11.1331 9.18505C10.5105 9.8033 9.77005 10.2902 8.95571 10.6169L8.04467 10.9824C8.03077 10.9879 8.0168 10.9933 8.00277 10.9986C7.23727 11.2845 6.37605 11.1084 5.78422 10.5456C5.77288 10.5349 5.76167 10.5239 5.75061 10.5129C5.14963 9.91194 4.96449 9.0111 5.27903 8.22214L5.27997 8.21979L5.64494 7.30796C5.9711 6.49309 6.45765 5.75205 7.07571 5.12883L9.18675 3.00017ZM11.6594 3.1656C11.9691 3.25232 12.2128 3.38449 12.4142 3.58594C12.7008 3.87249 12.8471 4.24446 12.9219 4.77043L9.81397 7.8566C9.66421 8.00531 9.5049 8.14338 9.33725 8.27002L7.65397 7.43937L7.66985 7.4115C7.76672 7.24287 7.87402 7.08042 7.99111 6.92512C8.11786 6.75702 8.25609 6.59728 8.40501 6.44712L11.6594 3.1656ZM7.65397 7.43937L7.59397 9.14599L7.34765 9.24481C7.25337 9.28002 7.14729 9.25835 7.07434 9.18899C7.00263 9.11728 6.98049 9.00971 7.01806 8.91547L7.38303 8.00364C7.46082 7.80928 7.55139 7.6208 7.65397 7.43937ZM9.33725 8.27002L7.5951 9.14554L8.25868 8.87934C8.45261 8.80154 8.64067 8.71103 8.8217 8.60855L8.85163 8.59146C9.02001 8.49451 9.1822 8.38715 9.33725 8.27002Z" fill="rgba(255,255,255,.5)" />
  <path d="M11.7529 3.07125C11.8537 2.97645 12.0107 2.97645 12.1114 3.07125L13.1874 4.14804C13.2864 4.24712 13.2864 4.40773 13.1874 4.50681L9.81397 7.8566C9.36924 8.29821 8.84036 8.646 8.25868 8.87934L7.34764 9.24481C7.25337 9.28002 7.14729 9.25835 7.07434 9.18899C7.00263 9.11728 6.98049 9.00971 7.01806 8.91547L7.38303 8.00364C7.616 7.42159 7.96354 6.89228 8.40501 6.44712L11.7529 3.07125Z" fill="rgba(255,255,255,.5)" />
  <path d="M14.9515 1.30745C14.523 0.897721 13.8482 0.897721 13.4197 1.30745L12.8449 1.88207C12.7392 1.98792 12.7392 2.15949 12.8449 2.26534L13.9933 3.41513C14.0991 3.52094 14.2705 3.52094 14.3763 3.41513L14.951 2.8405C15.3739 2.41712 15.3739 1.73083 14.951 1.30745H14.9515Z" fill="rgba(255,255,255,.5)" />
</svg>
