<svg width="16" height="16" viewBox="0 0 16 16" fill="none" xmlns="http://www.w3.org/2000/svg">
  <path fill-rule="evenodd" clip-rule="evenodd" d="M1 2C1 1.44772 1.44772 1 2 1H14C14.5523 1 15 1.44772 15 2C15 2.55228 14.5523 3 14 3H2C1.44772 3 1 2.55228 1 2Z" fill="#ffffff"/>
  <path fill-rule="evenodd" clip-rule="evenodd" d="M1 8C1 7.44772 1.44772 7 2 7H14C14.5523 7 15 7.44772 15 8C15 8.55228 14.5523 9 14 9H2C1.44772 9 1 8.55228 1 8Z" fill="#ffffff"/>
  <path fill-rule="evenodd" clip-rule="evenodd" d="M1 14C1 13.4477 1.44772 13 2 13H14C14.5523 13 15 13.4477 15 14C15 14.5523 14.5523 15 14 15H2C1.44772 15 1 14.5523 1 14Z" fill="#ffffff"/>
</svg>
