<svg width="16" height="16" viewBox="0 0 16 16" fill="none" xmlns="http://www.w3.org/2000/svg">
  <path d="M5 8C5 7.44772 5.44772 7 6 7H10C10.5523 7 11 7.44772 11 8V10C11 10.5523 10.5523 11 10 11H6C5.44772 11 5 10.5523 5 10V8Z" fill="rgba(255,255,255,.5)"/>
  <path d="M2 3H14.25C14.6642 3 15 2.66421 15 2.25C15 1.83578 14.6642 1.5 14.25 1.5H8.10594C8.03551 1.5 7.96528 1.49256 7.89641 1.4778L2.20953 0.259182C1.58702 0.125787 1 0.60034 1 1.23698V2C1 2.55228 1.44772 3 2 3Z" fill="rgba(255,255,255,.5)"/>
  <path d="M14 4H1.75C1.33579 4 1 4.33579 1 4.75C1 5.16421 1.33579 5.5 1.75 5.5H7.89406C7.96449 5.5 8.03472 5.50744 8.10359 5.5222L13.7905 6.74082C14.413 6.87421 15 6.39966 15 5.76301V5C15 4.44772 14.5523 4 14 4Z" fill="rgba(255,255,255,.5)"/>
  <path fill-rule="evenodd" clip-rule="evenodd" d="M5.8 8.6C6.02091 8.76568 6.06568 9.07908 5.9 9.3L1.4 15.3C1.23431 15.5209 0.920913 15.5657 0.699999 15.4C0.479085 15.2343 0.434313 14.9209 0.599999 14.7L5.1 8.7C5.26568 8.47909 5.57909 8.43431 5.8 8.6ZM10.2 8.6C10.4209 8.43431 10.7343 8.47909 10.9 8.7L15.4 14.7C15.5657 14.9209 15.5209 15.2343 15.3 15.4C15.0791 15.5657 14.7657 15.5209 14.6 15.3L10.1 9.3C9.93431 9.07908 9.97908 8.76568 10.2 8.6Z" fill="rgba(255,255,255,.5)"/>
  <path opacity="0.5" fill-rule="evenodd" clip-rule="evenodd" d="M7.20307 8.5431C6.95072 8.43094 6.65524 8.54459 6.54309 8.79693L4.54309 13.2969C4.43094 13.5493 4.54459 13.8448 4.79693 13.9569C5.04927 14.0691 5.34475 13.9554 5.4569 13.7031L7.4569 9.20307C7.56906 8.95073 7.45541 8.65525 7.20307 8.5431Z" fill="rgba(255,255,255,.5)"/>
  <path opacity="0.5" fill-rule="evenodd" clip-rule="evenodd" d="M8.79693 8.5431C9.04928 8.43094 9.34476 8.54459 9.45691 8.79693L11.4569 13.2969C11.5691 13.5493 11.4554 13.8448 11.2031 13.9569C10.9507 14.0691 10.6552 13.9554 10.5431 13.7031L8.5431 9.20307C8.43094 8.95073 8.54459 8.65525 8.79693 8.5431Z" fill="rgba(255,255,255,.5)"/>
  <path fill-rule="evenodd" clip-rule="evenodd" d="M8.5 2.5V8H7.5V2.5H8.5Z" fill="rgba(255,255,255,.5)"/>
</svg>
