<svg width="16" height="16" viewBox="0 0 16 16" fill="none" xmlns="http://www.w3.org/2000/svg">
  <path fill-rule="evenodd" clip-rule="evenodd" d="M8 3.75C5.65279 3.75 3.75 5.65279 3.75 8C3.75 10.3472 5.65279 12.25 8 12.25C10.3472 12.25 12.25 10.3472 12.25 8C12.25 5.65279 10.3472 3.75 8 3.75ZM2.25 8C2.25 4.82436 4.82436 2.25 8 2.25C11.1756 2.25 13.75 4.82436 13.75 8C13.75 11.1756 11.1756 13.75 8 13.75C4.82436 13.75 2.25 11.1756 2.25 8Z" fill="currentColor"/>
  <path fill-rule="evenodd" clip-rule="evenodd" d="M10.25 8C10.25 7.58579 10.5858 7.25 11 7.25L15 7.25C15.4142 7.25 15.75 7.58579 15.75 8C15.75 8.41421 15.4142 8.75 15 8.75L11 8.75C10.5858 8.75 10.25 8.41421 10.25 8Z" fill="currentColor"/>
  <path fill-rule="evenodd" clip-rule="evenodd" d="M0.25 8C0.25 7.58579 0.585786 7.25 1 7.25L5 7.25C5.41421 7.25 5.75 7.58579 5.75 8C5.75 8.41421 5.41421 8.75 5 8.75L1 8.75C0.585786 8.75 0.25 8.41421 0.25 8Z" fill="currentColor"/>
  <path fill-rule="evenodd" clip-rule="evenodd" d="M8 5.75C7.58579 5.75 7.25 5.41421 7.25 5L7.25 1C7.25 0.585786 7.58579 0.25 8 0.25C8.41421 0.25 8.75 0.585786 8.75 1L8.75 5C8.75 5.41421 8.41421 5.75 8 5.75Z" fill="currentColor"/>
  <path fill-rule="evenodd" clip-rule="evenodd" d="M8 15.75C7.58579 15.75 7.25 15.4142 7.25 15L7.25 11C7.25 10.5858 7.58579 10.25 8 10.25C8.41421 10.25 8.75 10.5858 8.75 11L8.75 15C8.75 15.4142 8.41421 15.75 8 15.75Z" fill="currentColor"/>
</svg>
