<svg width="16" height="16" viewBox="0 0 16 16" fill="none" xmlns="http://www.w3.org/2000/svg">
  <path d="M7.57365 4.88022L4.10328 8.35061C3.1017 9.35218 2.38401 10.6017 2.02354 11.9715L1.59834 13.5873C1.46841 14.081 1.91898 14.5316 2.41272 14.4016L4.02846 13.9765C5.39826 13.616 6.64779 12.8983 7.64937 11.8967L11.1197 8.42632C11.3801 8.16597 11.3801 7.74386 11.1197 7.48351L8.51646 4.88022C8.25611 4.61987 7.834 4.61987 7.57365 4.88022Z" fill="currentColor"/>
  <path d="M11.0397 1.41422L10.6442 1.80975C10.3838 2.0701 10.3838 2.49221 10.6442 2.75256L13.2475 5.35585C13.5078 5.6162 13.9299 5.6162 14.1903 5.35585L14.5858 4.96032C15.3668 4.17927 15.3668 2.91293 14.5858 2.13188L13.8681 1.41422C13.0871 0.633167 11.8208 0.633167 11.0397 1.41422Z" fill="currentColor"/>
</svg>
