<svg width="16" height="16" viewBox="0 0 16 16" fill="none" xmlns="http://www.w3.org/2000/svg">
  <path
    d="M12.8562 4.92405L9.35624 1.15482C9.26099 1.05481 9.13302 0.999201 9 1.00001H3C2.73478 1.00001 2.48043 1.11347 2.29289 1.31543C2.10536 1.51739 2 1.79131 2 2.07693V13.9231C2 14.2087 2.10536 14.4826 2.29289 14.6846C2.48043 14.8865 2.73478 15 3 15H12C12.2652 15 12.5196 14.8865 12.7071 14.6846C12.8946 14.4826 13 14.2087 13 13.9231V5.3077C13.0007 5.16444 12.9491 5.02662 12.8562 4.92405ZM9.60624 10.2683L7.85625 12.1529C7.76068 12.2524 7.63294 12.308 7.5 12.308C7.36706 12.308 7.23932 12.2524 7.14375 12.1529L5.39375 10.2683C5.31402 10.1637 5.27327 10.0308 5.27944 9.89565C5.2856 9.76047 5.33824 9.63259 5.4271 9.53689C5.51597 9.44118 5.63472 9.3845 5.76024 9.37786C5.88577 9.37122 6.0091 9.4151 6.10625 9.50097L7 10.4702V7.46154C7 7.31873 7.05267 7.18178 7.14644 7.08079C7.24021 6.97981 7.36739 6.92308 7.5 6.92308C7.6326 6.92308 7.75978 6.97981 7.85355 7.08079C7.94732 7.18178 8 7.31873 8 7.46154V10.4702L8.89375 9.50097C8.99089 9.4151 9.11422 9.37122 9.23975 9.37786C9.36528 9.3845 9.48402 9.44118 9.57289 9.53689C9.66176 9.63259 9.71439 9.76047 9.72056 9.89565C9.72672 10.0308 9.68598 10.1637 9.60624 10.2683ZM9 5.3077V2.34616L11.75 5.3077H9Z"
    fill="white" />
</svg>