<svg width="16" height="16" viewBox="0 0 16 16" fill="none" xmlns="http://www.w3.org/2000/svg">
  <path fill-rule="evenodd" clip-rule="evenodd" d="M12.6875 6H3.3125C3.13991 6 3 6.13431 3 6.3V13.8C3 14.4627 3.55964 15 4.25 15H11.75C12.4404 15 13 14.4627 13 13.8V6.3C13 6.13431 12.8601 6 12.6875 6ZM7 12.5556C7 12.801 6.77614 13 6.5 13C6.22386 13 6 12.801 6 12.5556V7.44444C6 7.19898 6.22386 7 6.5 7C6.77614 7 7 7.19898 7 7.44444V12.5556ZM9.5 13C9.77614 13 10 12.801 10 12.5556V7.44444C10 7.19898 9.77614 7 9.5 7C9.22386 7 9 7.19898 9 7.44444V12.5556C9 12.801 9.22386 13 9.5 13Z" fill="currentColor" />
  <path fill-rule="evenodd" clip-rule="evenodd" d="M10.88 3.11707C11.7366 3.17549 12.5746 3.37925 13.3532 3.71842C13.7397 3.88799 13.9903 4.24774 14 4.6471C13.9951 4.95391 13.7279 5.2002 13.4 5.20016H2.60006C2.43946 5.20018 2.28556 5.13994 2.1728 5.03294C2.06003 4.92594 1.99781 4.78109 2.00006 4.63082C2.0269 4.21759 2.30136 3.85418 2.70866 3.69259C3.47001 3.37342 4.2842 3.17876 5.11584 3.11707C5.44056 1.87426 6.63075 1 7.99793 1C9.36511 1 10.5553 1.87426 10.88 3.11707ZM9.56224 3.00425C9.26073 2.45321 8.64987 2.11127 7.98845 2.12328C7.33497 2.11447 6.73392 2.45693 6.44226 3.00425C7.48137 2.94756 8.52313 2.94756 9.56224 3.00425Z" fill="currentColor" />
</svg>
