<svg width="16" height="16" viewBox="0 0 16 16" fill="none" xmlns="http://www.w3.org/2000/svg">
  <path fill-rule="evenodd" clip-rule="evenodd" d="M3 12.6667C3 12.7551 3.03512 12.8399 3.09763 12.9024C3.16014 12.9649 3.24493 13 3.33333 13L12.6667 13C12.7551 13 12.8399 12.9649 12.9024 12.9024C12.9649 12.8399 13 12.7551 13 12.6667L13 10C13 9.44771 13.4477 9 14 9C14.5523 9 15 9.44771 15 10L15 12.6667C15 13.2855 14.7542 13.879 14.3166 14.3166C13.879 14.7542 13.2855 15 12.6667 15L3.33333 15C2.7145 15 2.121 14.7542 1.68342 14.3166C1.24583 13.879 1 13.2855 1 12.6667L1 10C1 9.44772 1.44771 9 2 9C2.55228 9 3 9.44772 3 10L3 12.6667Z" fill="rgba(255,255,255,.5)"/>
  <path fill-rule="evenodd" clip-rule="evenodd" d="M4.46967 4.46967C4.25517 4.68417 4.19101 5.00676 4.30709 5.28701C4.42318 5.56727 4.69665 5.75 5 5.75L7 5.75L7 10C7 10.5523 7.44771 11 8 11C8.55228 11 9 10.5523 9 10L9 5.75L11 5.75C11.3033 5.75 11.5768 5.56727 11.6929 5.28701C11.809 5.00676 11.7448 4.68417 11.5303 4.46967L8.53033 1.46967C8.38968 1.32902 8.19891 1.25 8 1.25C7.80109 1.25 7.61032 1.32902 7.46967 1.46967L4.46967 4.46967Z" fill="rgba(255,255,255,.5)"/>
</svg>
