<svg width="16" height="16" viewBox="0 0 16 16" fill="none" xmlns="http://www.w3.org/2000/svg">
  <path fill-rule="evenodd" clip-rule="evenodd" d="M11.1178 0.501387C11.8188 0.461962 12.084 1.27171 11.6454 1.81993L10.2531 3.56042C9.93474 3.95831 9.96651 4.53192 10.3268 4.89223L10.6319 5.19726C10.6335 5.19888 10.6351 5.2005 10.6367 5.20213C10.6384 5.20376 10.64 5.20538 10.6416 5.20701L10.9466 5.51206C11.307 5.87237 11.8806 5.90414 12.2785 5.58582L14.0189 4.19343C14.5672 3.75486 15.3769 4.02009 15.3375 4.72104C15.2842 5.66815 14.8958 6.59992 14.1723 7.32346C13.1253 8.37038 11.6425 8.71566 10.308 8.35928L7.12755 11.5397C6.72528 11.942 6.54877 12.5064 6.41278 13.0588C6.28637 13.5723 6.02255 14.059 5.62132 14.4602C4.44975 15.6318 2.55025 15.6318 1.37868 14.4602C0.207107 13.2886 0.207107 11.3891 1.37868 10.2175C1.77991 9.81631 2.26652 9.55249 2.78002 9.42608C3.33242 9.29009 3.89686 9.11358 4.29913 8.71131L7.47959 5.53085C7.12322 4.19638 7.4685 2.71352 8.51541 1.66661C9.23896 0.943064 10.1707 0.554657 11.1178 0.501387ZM4.91421 13.7531C4.13316 14.5341 2.86684 14.5341 2.08579 13.7531C1.30474 12.972 1.30474 11.7057 2.08579 10.9246C2.86684 10.1436 4.13316 10.1436 4.91421 10.9246C5.69526 11.7057 5.69526 12.972 4.91421 13.7531Z" fill="rgba(255,255,255,.5)"/>
</svg>
