<svg width="16" height="16" viewBox="0 0 20 20" xmlns="http://www.w3.org/2000/svg">
  <path fill-rule="evenodd"
    d="M 2.3 1.3 C 1.7 1.3 1.3 1.7 1.3 2.3 L 1.3 5.3 C 1.3 5.8 1.7 6.3 2.3 6.3 L 10.3 6.3 C 10.8 6.3 11.3 5.8 11.3 5.3 V 2.3 C 11.3 1.7 10.8 1.3 10.3 1.3 L 2.3 1.3 Z M 7.4 3.1 L 2.4 3.1 L 2.4 4.4 L 7.4 4.4 V 3.1 Z"
    fill="currentColor" />
  <path fill-rule="evenodd"
    d="M 6 7.5 C 5.4 7.5 5 7.9 5 8.5 L 5 11.5 C 5 12.1 5.4 12.5 6 12.5 H 14 C 14.6 12.5 15 12.1 15 11.5 V 8.5 C 15 7.9 14.6 7.5 14 7.5 L 6 7.5 Z M 11.1 9.4 H 6.1 V 10.6 H 11.1 V 9.4 Z"
    fill="currentColor" />
  <path fill-rule="evenodd"
    d="M 9.8 13.8 C 9.2 13.8 8.8 14.2 8.8 14.8 V 17.8 C 8.8 18.3 9.2 18.8 9.8 18.8 H 17.8 C 18.3 18.8 18.8 18.3 18.8 17.8 V 14.8 C 18.8 14.2 18.3 13.8 17.8 13.8 L 9.8 13.8 Z M 14.9 15.6 H 9.9 V 16.9 H 14.9 V 15.6 Z"
    fill="currentColor" />
</svg>